<svg xmlns="http://www.w3.org/2000/svg" xmlns:xlink="http://www.w3.org/1999/xlink" id="svg1" width="248.031" height="248.031"><defs id="defs3"><linearGradient id="linearGradient127" x1="0" x2="1" y1="0" y2="0" gradientUnits="objectBoundingBox" spreadMethod="pad"><stop id="stop128" offset="0" stop-color="#000" stop-opacity="1"/><stop id="stop129" offset="1" stop-color="#fff" stop-opacity="1"/></linearGradient><linearGradient id="linearGradient130" x1="0" x2="1" y1="0" y2="0" gradientUnits="objectBoundingBox" spreadMethod="pad" xlink:href="#linearGradient127"/><radialGradient id="radialGradient131" cx=".5" cy=".5" r=".5" fx=".5" fy=".5" gradientUnits="objectBoundingBox" spreadMethod="pad" xlink:href="#linearGradient127"/></defs><g id="g158" font-size="12" transform="matrix(0.771934,0,0,0.771934,4.36019,-3.02123)"><rect id="rect136" width="285.502" height="77.269" x="16.698" y="17.353" fill="#757575" fill-rule="evenodd" stroke-width="1pt"/><rect id="rect126" width="285.502" height="77.269" x="14.733" y="15.388" fill="#d2d2d2" fill-rule="evenodd" stroke-width="1pt" transform="translate(-1.30962,-1.30992)"/></g><g id="g161" font-size="12" transform="matrix(0.771934,0,0,0.771934,4.36019,3.04452)"><rect id="rect137" width="285.502" height="118.523" x="16.698" y="99.205" fill="#757575" fill-rule="evenodd" stroke-width="1pt"/><rect id="rect132" width="285.502" height="118.523" x="13.424" y="95.931" fill="#d2d2d2" fill-rule="evenodd" stroke-width="1pt"/></g><g id="g164" font-size="12" transform="matrix(0.771934,0,0,0.771934,4.36019,8.0993)"><rect id="rect138" width="285.502" height="77.269" x="16.698" y="222.966" fill="#757575" fill-rule="evenodd" stroke-width="1pt"/><rect id="rect133" width="285.502" height="77.269" x="14.733" y="221.002" fill="#d2d2d2" fill-rule="evenodd" stroke-width="1pt" transform="translate(-1.30962,-1.30992)"/></g><g id="g167" font-size="12" transform="matrix(0.771934,0,0,0.543505,2.59104,21.1103)"><rect id="rect134" width="199.065" height="61.553" x="61.88" y="68.429" fill="#757575" fill-rule="evenodd" stroke-width="1pt"/><rect id="rect135" width="199.065" height="61.553" x="59.261" y="65.809" fill="#e0e0e0" fill-rule="evenodd" stroke-width="1pt"/></g><text id="text183" x="105.392" y="56.568" stroke-width="1pt" font-family="Helvetica" font-size="24" font-weight="normal" transform="scale(0.771934,0.771934)"><tspan id="tspan186" x="105.392" y="56.568">Application</tspan></text><text id="text188" x="81.82" y="103.149" stroke-width="1pt" font-family="Helvetica" font-size="20" font-weight="normal" transform="scale(0.771934,0.771934)"><tspan id="tspan206" x="81.82" y="103.15">Persistent Objects</tspan></text><text id="text197" x="111.548" y="278.928" stroke-width="1pt" font-family="Helvetica" font-size="24" font-weight="normal" transform="scale(0.771934,0.771934)"><tspan id="tspan200" x="111.548" y="278.928">Database</tspan></text><text id="text216" x="94.436" y="153.806" stroke-width="1pt" font-family="Helvetica" font-size="24" font-weight="normal" transform="scale(0.771934,0.771934)"><tspan id="tspan221" x="94.436" y="153.806">HIBERNATE</tspan></text><g id="g254" font-size="12" transform="matrix(0.771934,0,0,0.771934,2.59083,1.02261)"><g id="g176" transform="translate(4.58374,2.61928)"><g id="g170" transform="matrix(0.571429,0,0,0.67347,-10.6174,117.093)"><rect id="rect171" width="199.065" height="61.553" x="61.88" y="68.429" fill="#757575" fill-rule="evenodd" stroke-width="1pt"/><rect id="rect172" width="199.065" height="61.553" x="59.261" y="65.809" fill="#e0e0e0" fill-rule="evenodd" stroke-width="1pt"/></g><g id="g173" transform="matrix(0.571429,0,0,0.67347,138.682,117.093)"><rect id="rect174" width="199.065" height="61.553" x="61.88" y="68.429" fill="#757575" fill-rule="evenodd" stroke-width="1pt"/><rect id="rect175" width="199.065" height="61.553" x="59.261" y="65.809" fill="#e0e0e0" fill-rule="evenodd" stroke-width="1pt"/></g></g><text id="text191" x="47.259" y="182.368" stroke-width="1pt" font-family="Courier" font-weight="bold"><tspan id="tspan212" x="47.259" y="182.368">hibernate.</tspan> <tspan id="tspan214" x="47.259" y="194.368"> properties</tspan></text><text id="text194" x="198.523" y="188.261" stroke-width="1pt" font-family="helvetica" font-weight="normal"><tspan id="tspan195">XML Mapping</tspan></text></g></svg>